<svg xmlns="http://www.w3.org/2000/svg" xml:space="preserve" x="0" y="0" version="1.1" viewBox="0 0 200 50"><style>.st0{fill:#2f4c9c}.st1{fill:#fff}.st2,.st3{fill:#2f4c9c;stroke:#fff;stroke-miterlimit:10}.st3{fill:none;stroke:#2f4c9c;stroke-width:.75}.st4{fill:#e5242a}.st5{opacity:.25;fill:#fff}</style><path d="M5.3 13.5h34.5v23.1H5.3z" class="st0"/><path d="M11.8 21.7h21.5l.6.7s2.3-1.7 3.2-.4c.8 1.2-1.9 2.7-1.9 2.7s.3 6.4-1.4 7.1v1.4H29v-.5H16.1v.5h-5v-1.5s-1.5 0-1-7.1c0 0-3.1-1.2-2.1-2.6 1-1.5 3.1.4 3.1.4l.7-.7z" class="st1"/><path d="M33.6 22.3s-1.9-3.9-3.4-4.4c-1.3-.5-4.3-.6-7.2-.6-3.5 0-6.3.1-7.2.5-1.6.7-4.4 4.5-4.4 4.5h22.2z" class="st2"/><path d="M29 28.2c0 .9-.8 1.7-1.7 1.7h-9.6c-.9 0-1.7-.8-1.7-1.7 0-.9.8-1.7 1.7-1.7h9.6c1 0 1.7.7 1.7 1.7z" class="st0"/><path d="M10.5 29.7s1.4 1.3 2.1 1.6c.7.2 19.1.3 19.8 0 .6-.3 2.2-1.8 2.2-1.8" class="st3"/><ellipse cx="13.8" cy="26" class="st0" rx=".9" ry="1.7" transform="rotate(-52.901 13.778 25.958)"/><ellipse cx="31.5" cy="26" class="st0" rx="1.7" ry=".9" transform="rotate(-37.07 31.493 25.958)"/><path d="m52.7 16.8 2.4 16.4h-4.4l-.2-2.9H49l-.3 2.9h-4.4l2.2-16.4h6.2zm-2.2 10.5c-.2-1.9-.4-4.1-.6-6.9-.4 3.1-.7 5.4-.8 6.9h1.4zM65.1 19.7v13.4H61l.1-1.1c-.3.5-.6.8-1 1-.4.2-.9.3-1.4.3-.6 0-1.1-.1-1.5-.3-.4-.2-.7-.5-.9-.9-.2-.4-.3-.7-.4-1.1 0-.4-.1-1.2-.1-2.3v-9.1h4.1v9.1c0 1 0 1.7.1 1.9.1.2.2.3.5.3s.5-.1.5-.3c.1-.2.1-.9.1-2v-9h4zM70.9 17.9V20H72v2.1h-1.1v7.2c0 .9 0 1.4.1 1.5.1.1.5.2 1.1.2v2.2h-1.6c-.9 0-1.6 0-2-.1-.4-.1-.7-.3-1.1-.5-.3-.3-.5-.6-.6-1-.1-.4-.1-1.2-.1-2.5v-6.8h-.9v-2.1h.9v-2.1h4.2zM82.2 24.4v3.3c0 1.2-.1 2.1-.2 2.7-.1.6-.4 1.1-.8 1.6s-.9.8-1.5 1.1c-.6.2-1.3.4-2.2.4-.9 0-1.7-.1-2.3-.3-.6-.2-1.1-.5-1.5-.9-.3-.4-.6-.9-.7-1.5-.1-.6-.2-1.4-.2-2.6v-3.4c0-1.2.1-2.2.4-2.9.3-.7.8-1.3 1.5-1.7.7-.4 1.6-.6 2.7-.6.9 0 1.7.1 2.4.4.7.3 1.2.6 1.5 1.1.4.4.6.9.7 1.4.1.3.2 1 .2 1.9zm-4.1-1c0-.7 0-1.1-.1-1.3-.1-.2-.2-.3-.5-.3s-.4.2-.5.3c-.1.2-.1.6-.1 1.3v6.1c0 .6 0 1 .1 1.2.1.2.2.3.5.3.2 0 .4-.1.5-.3.1-.2.1-.6.1-1.1v-6.2zM88.5 25v2.8h-5.4V25h5.4zM105.8 16.8l-1.9 16.4h-5.3c-.5-2.5-.9-5.4-1.3-8.6-.2 1.4-.6 4.2-1.2 8.6h-5.3l-1.9-16.4H93l.5 5.7.4 5.5c.2-2.9.5-6.6 1.2-11.2h4.4c.1.5.2 2.3.5 5.4l.5 6.2c.2-4 .6-7.8 1.2-11.6h4.1zM115.6 26.7h-5.3v2.9c0 .6 0 1 .1 1.2.1.2.3.3.5.3.3 0 .5-.1.6-.3.1-.2.2-.7.2-1.4v-1.8h3.9v1c0 .8-.1 1.5-.2 1.9-.1.4-.3.9-.7 1.4-.4.5-.9.9-1.5 1.1-.6.3-1.3.4-2.2.4-.9 0-1.6-.1-2.3-.4-.7-.2-1.2-.6-1.5-1-.4-.4-.6-.9-.8-1.4-.1-.5-.2-1.3-.2-2.3v-3.9c0-1.2.2-2.1.5-2.8.3-.7.8-1.2 1.6-1.6.7-.4 1.6-.5 2.5-.5 1.1 0 2.1.2 2.8.7.7.4 1.3 1 1.6 1.7.3.7.5 1.7.5 3v1.8zm-4.1-2.2v-1c0-.7 0-1.1-.1-1.3-.1-.2-.2-.3-.5-.3s-.5.1-.5.3c-.1.2-.1.6-.1 1.4v1h1.2zM121 19.7l-.2 1.8c.6-1.3 1.5-1.9 2.6-2v4.7c-.7 0-1.3.1-1.6.3-.4.2-.6.5-.6.8-.1.4-.1 1.2-.1 2.5v5.3H117V19.7h4zM133.3 19.7l-1.7 5.3 2.2 8.1h-3.9l-1.3-5.9v5.9h-4.1V16.8h4.1v6.9l1.3-3.9h3.4zM142.8 24h-3.6v-.7c0-.6 0-1-.1-1.2-.1-.2-.3-.2-.5-.2s-.4.1-.5.2c-.1.2-.2.4-.2.7 0 .4 0 .7.1.9.1.2.2.4.5.6.3.2.9.6 1.8 1 1.2.6 2 1.1 2.3 1.6.4.5.6 1.3.6 2.2 0 1.1-.1 1.9-.4 2.5-.3.6-.8 1-1.4 1.3-.7.3-1.5.5-2.4.5-1 0-1.9-.2-2.7-.5-.7-.3-1.2-.8-1.5-1.3-.3-.6-.4-1.4-.4-2.5v-.6h3.6v.9c0 .7 0 1.2.1 1.4.1.2.3.3.5.3.3 0 .5-.1.6-.2.1-.1.2-.5.2-.9 0-.6-.1-1-.2-1.2-.2-.2-.9-.6-2.4-1.4-1.2-.7-1.9-1.3-2.2-1.8-.3-.5-.4-1.2-.4-2 0-1.1.1-1.9.4-2.4.3-.5.8-.9 1.4-1.2.7-.3 1.5-.4 2.4-.4.9 0 1.6.1 2.3.3.6.2 1.1.5 1.4.9.3.4.5.7.6 1 .1.3.1.8.1 1.5v.7zM148.5 17.9V20h1.1v2.1h-1.1v7.2c0 .9 0 1.4.1 1.5.1.1.5.2 1.1.2v2.2h-1.6c-.9 0-1.6 0-2-.1-.4-.1-.7-.3-1.1-.5-.3-.3-.5-.6-.6-1-.1-.4-.1-1.2-.1-2.5v-6.8h-.9v-2.1h.9v-2.1h4.2zM154.2 24.9h-3.8V24c0-1 .1-1.8.4-2.4.2-.6.7-1.1 1.4-1.5.7-.4 1.7-.6 2.8-.6 1.4 0 2.4.2 3.1.7.7.5 1.1 1.1 1.3 1.8.1.7.2 2.2.2 4.4v6.7h-4V32c-.3.5-.6.8-1 1.1-.4.2-.9.4-1.4.4-.7 0-1.4-.2-2-.6-.6-.4-.9-1.3-.9-2.6v-1.1c0-1 .2-1.7.5-2.1.3-.4 1.1-.8 2.4-1.3 1.3-.5 2.1-.9 2.2-1.1.1-.2.1-.6.1-1.1 0-.7-.1-1.2-.2-1.4-.1-.2-.3-.3-.5-.3-.3 0-.4.1-.5.3-.1.2-.1.6-.1 1.4v1.3zm1.3 1.9c-.7.5-1 .9-1.1 1.2-.1.3-.2.8-.2 1.4 0 .7 0 1.1.1 1.3.1.2.3.3.5.3.3 0 .4-.1.5-.2.1-.2.1-.6.1-1.2v-2.8zM165.3 17.9V20h1.1v2.1h-1.1v7.2c0 .9 0 1.4.1 1.5.1.1.5.2 1.1.2v2.2h-1.7c-.9 0-1.6 0-2-.1-.4-.1-.7-.3-1.1-.5-.3-.3-.5-.6-.6-1-.1-.4-.1-1.2-.1-2.5v-6.8h-.9v-2.1h.9v-2.1h4.3zM171.8 17.9V20h1.1v2.1h-1.1v7.2c0 .9 0 1.4.1 1.5.1.1.5.2 1.1.2v2.2h-1.6c-.9 0-1.6 0-2-.1-.4-.1-.7-.3-1.1-.5-.3-.3-.5-.6-.6-1-.1-.4-.1-1.2-.1-2.5v-6.8h-.9v-2.1h.9v-2.1h4.2zM177.6 29.8v3.3h-3.1v-3.3h3.1z"/><path d="M186.2 20.3v12.8H183v-.8c-.3.3-.6.6-1 .7-.3.2-.7.2-1.1.2-.5 0-.9-.1-1.3-.4-.4-.3-.6-.6-.7-.9-.1-.3-.2-.9-.2-1.7v-4.9c0-.8.1-1.4.2-1.7.1-.3.3-.6.7-.9.4-.3.8-.4 1.3-.4.4 0 .8.1 1.1.2.3.1.6.4.9.6v-3h3.3zm-3.2 5c0-.4 0-.6-.1-.8-.1-.1-.2-.2-.4-.2s-.3.1-.4.2c-.1.1-.1.4-.1.8v5.1c0 .4 0 .7.1.8.1.1.2.2.4.2s.3-.1.4-.2c.1-.2.1-.5.1-1.1v-4.8zM194.6 28.1h-4.1v2.3c0 .5 0 .8.1.9.1.1.2.2.4.2s.4-.1.5-.3c.1-.2.1-.5.1-1.1v-1.4h3v.8c0 .6 0 1.1-.1 1.5-.1.3-.3.7-.6 1.1-.3.4-.7.7-1.1.9-.5.2-1 .3-1.7.3s-1.3-.1-1.8-.3c-.5-.2-.9-.5-1.2-.8-.3-.3-.5-.7-.6-1.1-.1-.4-.2-1-.2-1.8v-3.1c0-.9.1-1.6.4-2.2.2-.5.7-.9 1.2-1.2.6-.3 1.2-.4 1.9-.4.9 0 1.6.2 2.2.5.6.3 1 .8 1.2 1.4.2.6.4 1.4.4 2.4v1.4zm-3.2-1.7v-.8c0-.5 0-.9-.1-1.1-.1-.2-.2-.2-.4-.2s-.4.1-.4.2c-.1.1-.1.5-.1 1.1v.8h1z" class="st4"/><path d="M5.1 22.3c4.3 1.2 10.6 3.4 17.5 3.4 6 0 12.6-2 17.1-3.4v-8.8H5.1v8.8z" class="st5"/></svg>